# xmcd
#
# Track frame offsets:
#  150
#  12117
#  30020
#  41190
#  55110
#  67065
#  74735
#  86495
#  95152
#  114505
#  124422
#  139577
#  151802
#  163430
#
# Disc length: 2316 seconds
#
# Revision: 0
# Processed by: cddbd v1.4PL0 Copyright (c) Steve Scherf et al.
# Submitted via: AltoMP3_Maker 3.0
#
DISCID=c3090a0e
DTITLE=Del McCoury - I Wonder Where You Are Tonight
DYEAR=1900
DGENRE=
TTITLE0=Hey Hey, Bartender
TTITLE1=Willie Roy
TTITLE2=Prisoner's Song
TTITLE3=I'm coming Back But I Don't Know When
TTITLE4=I Wonder Where You Are Tonight
TTITLE5=Fire On The Mountain
TTITLE6=You're A Flower In The Wildwood
TTITLE7=Used To Be
TTITLE8=Dreams
TTITLE9=Whose Shoulder Will You Cry On
TTITLE10=Sweetheart You Done Me Wrong
TTITLE11=Roll In My Sweet Baby's Arms
TTITLE12=Blue Yodel
TTITLE13=A Beautiful Life
EXTD=
EXTT0=
EXTT1=
EXTT2=
EXTT3=
EXTT4=
EXTT5=
EXTT6=
EXTT7=
EXTT8=
EXTT9=
EXTT10=
EXTT11=
EXTT12=
EXTT13=
PLAYORDER=
